<svg xmlns="http://www.w3.org/2000/svg" viewBox="3.125 2.125 19.114 20.114" width="19.114" height="20.114" fill="none">
    <path d="M17.1213 21.364L19.2426 19.2427M21.364 17.1214L19.2426 19.2427M19.2426 19.2427L17.1213 17.1214M19.2426 19.2427L21.364 21.364" stroke="#FAF9F7" stroke-width="1.75" stroke-linecap="round" stroke-linejoin="round"></path>
    <path d="M4 6V12C4 12 4 15 11 15C18 15 18 12 18 12V6" stroke="#FAF9F7" stroke-width="1.75" stroke-linecap="round" stroke-linejoin="round"></path>
    <path d="M11 3C18 3 18 6 18 6C18 6 18 9 11 9C4 9 4 6 4 6C4 6 4 3 11 3Z" stroke="#FAF9F7" stroke-width="1.75" stroke-linecap="round" stroke-linejoin="round"></path>
    <path d="M11 21C4 21 4 18 4 18V12" stroke="#FAF9F7" stroke-width="1.75" stroke-linecap="round" stroke-linejoin="round"></path>
</svg>